
   <svg xmlns="http://www.w3.org/2000/svg" xmlns:xlink="http://www.w3.org/1999/xlink" version="1.1" id="Layer_1" x="154.29505920410156" y="249.80896362304688" viewBox="1.1000003814697266 3.1000003814697266 94.19998931884766 78.89999389648438" xml:space="preserve" height="75.382080078125" width="90" preserveAspectRatio="xMinYMin" enable-background="new 0 0 96.4 85" style="overflow: visible;">
      <path class="st4" d="M76.2,30.7V7.1H14.5c-5.2,0-9.4,4.3-9.4,9.4v4.7c0,5.2,4.3,9.4,9.4,9.4h11.1c-5.2,0-9.4,4.3-9.4,9.4v4.7   c0,5.2,4.3,9.4,9.4,9.4H14.5c-5.2,0-9.4,4.3-9.4,9.4v4.7c0,5.2,4.3,9.4,9.4,9.4h61.7V54.3h11.1V30.7H76.2z" style="fill: #FFFFFF;"></path>
      <path class="st46" d="M42,42.5v21.7c0,0.9,0.5,1.8,1.3,2.2c0.8,0.4,1.8,0.4,2.6-0.1l5.9-3.9l5.9,3.9c0.4,0.3,0.9,0.4,1.4,0.4   c0.4,0,0.8-0.1,1.2-0.3c0.8-0.4,1.3-1.3,1.3-2.2V42.5H42z" style="fill: #E15E31;"></path>
      <path class="st46" d="M72.2,74H14.5c-3,0-5.4-2.4-5.4-5.4v-4.7c0-3,2.4-5.4,5.4-5.4H37v-8H14.5c-7.4,0-13.4,6-13.4,13.4v4.7   c0,7.4,6,13.4,13.4,13.4h61.7c2.2,0,4-1.8,4-4V66.3h-8V74z" style="fill: #376596; fill-opacity: 1;"></path>
      <path class="st145" d="M83.3,50.3H66.5v8h20.8c2.2,0,4-1.8,4-4V42.7h-8V50.3z M91.3,26.7H25.6c-7.4,0-13.4,6-13.4,13.4v4.7   c0,7.4,6,13.4,13.4,13.4H37v-8H25.6c-3,0-5.4-2.4-5.4-5.4v-4.7c0-3,2.4-5.4,5.4-5.4h65.7c2.2,0,4-1.8,4-4S93.5,26.7,91.3,26.7z" style="fill: #49a0d9; fill-opacity: 1;"></path>
      <path class="st301" d="M14.5,11.1h65.7c2.2,0,4-1.8,4-4s-1.8-4-4-4H14.5c-7.4,0-13.4,6-13.4,13.4v4.7c0,7.4,6,13.4,13.4,13.4h61.7   c2.2,0,4-1.8,4-4V19.1h-8v7.6H14.5c-3,0-5.4-2.4-5.4-5.4v-4.7C9.1,13.5,11.5,11.1,14.5,11.1z" style="fill: #6FBDD3;"></path>
   </svg>

